<svg id="visual" viewBox="0 0 900 600" width="900" height="600" xmlns="http://www.w3.org/2000/svg" xmlns:xlink="http://www.w3.org/1999/xlink" version="1.1"><path d="M0 184L10 184.7C20 185.3 40 186.7 60 187.5C80 188.3 100 188.7 120 180.7C140 172.7 160 156.3 180 140.2C200 124 220 108 240 107.7C260 107.3 280 122.7 300 135C320 147.3 340 156.7 360 164.7C380 172.7 400 179.3 420 178.5C440 177.7 460 169.3 480 168.3C500 167.3 520 173.7 540 181.2C560 188.7 580 197.3 600 195.8C620 194.3 640 182.7 660 174.5C680 166.3 700 161.7 720 151.7C740 141.7 760 126.3 780 133.2C800 140 820 169 840 180.3C860 191.7 880 185.3 890 182.2L900 179L900 0L890 0C880 0 860 0 840 0C820 0 800 0 780 0C760 0 740 0 720 0C700 0 680 0 660 0C640 0 620 0 600 0C580 0 560 0 540 0C520 0 500 0 480 0C460 0 440 0 420 0C400 0 380 0 360 0C340 0 320 0 300 0C280 0 260 0 240 0C220 0 200 0 180 0C160 0 140 0 120 0C100 0 80 0 60 0C40 0 20 0 10 0L0 0Z" fill="#ECEFF4" stroke-linecap="round" stroke-linejoin="miter"></path></svg>