<svg id="visual" viewBox="0 0 900 600" width="900" height="600" xmlns="http://www.w3.org/2000/svg" xmlns:xlink="http://www.w3.org/1999/xlink" version="1.1"><path d="M0 4L5 11.7C10 19.3 20 34.7 30 34.7C40 34.7 50 19.3 60 18.5C70 17.7 80 31.3 90 34.8C100 38.3 110 31.7 120 31.3C130 31 140 37 150 39C160 41 170 39 180 40.3C190 41.7 200 46.3 210 44.2C220 42 230 33 240 33.3C250 33.7 260 43.3 270 43.7C280 44 290 35 300 34.7C310 34.3 320 42.7 330 47.3C340 52 350 53 360 50C370 47 380 40 390 38.7C400 37.3 410 41.7 420 42.7C430 43.7 440 41.3 450 41.3C460 41.3 470 43.7 480 37.8C490 32 500 18 510 17C520 16 530 28 540 35.5C550 43 560 46 570 49.2C580 52.3 590 55.7 600 52.3C610 49 620 39 630 36.2C640 33.3 650 37.7 660 35.8C670 34 680 26 690 19.3C700 12.7 710 7.3 720 12.2C730 17 740 32 750 37C760 42 770 37 780 36C790 35 800 38 810 34.5C820 31 830 21 840 23.8C850 26.7 860 42.3 870 40.7C880 39 890 20 895 10.5L900 1L900 0L895 0C890 0 880 0 870 0C860 0 850 0 840 0C830 0 820 0 810 0C800 0 790 0 780 0C770 0 760 0 750 0C740 0 730 0 720 0C710 0 700 0 690 0C680 0 670 0 660 0C650 0 640 0 630 0C620 0 610 0 600 0C590 0 580 0 570 0C560 0 550 0 540 0C530 0 520 0 510 0C500 0 490 0 480 0C470 0 460 0 450 0C440 0 430 0 420 0C410 0 400 0 390 0C380 0 370 0 360 0C350 0 340 0 330 0C320 0 310 0 300 0C290 0 280 0 270 0C260 0 250 0 240 0C230 0 220 0 210 0C200 0 190 0 180 0C170 0 160 0 150 0C140 0 130 0 120 0C110 0 100 0 90 0C80 0 70 0 60 0C50 0 40 0 30 0C20 0 10 0 5 0L0 0Z" fill="#ECEFF4" stroke-linecap="round" stroke-linejoin="miter"></path></svg>